<?xml version="1.0" standalone="no"?>
<!DOCTYPE svg PUBLIC "-//W3C//DTD SVG 20010904//EN"
 "http://www.w3.org/TR/2001/REC-SVG-20010904/DTD/svg10.dtd">
<svg version="1.0" xmlns="http://www.w3.org/2000/svg"
 width="350.000000pt" height="350.000000pt" viewBox="0 0 350.000000 350.000000"
 preserveAspectRatio="xMidYMid meet">
<metadata>
Created by potrace 1.11, written by Peter Selinger 2001-2013
</metadata>
<g transform="translate(0.000000,350.000000) scale(0.100000,-0.100000)"
fill="#000000" stroke="none">
<path d="M992 3129 c-64 -59 -188 -392 -242 -650 -10 -50 -20 -93 -22 -94 -2
-2 -30 3 -63 10 -64 15 -85 9 -85 -26 0 -22 19 -32 88 -49 47 -11 52 -14 52
-40 0 -26 -4 -29 -48 -35 -62 -8 -75 -17 -70 -46 3 -23 6 -24 69 -21 62 2 66
1 77 -23 16 -35 17 -32 -27 -54 -43 -22 -57 -46 -40 -67 16 -19 33 -18 80 7
l40 20 42 -42 c23 -23 52 -48 64 -56 l23 -15 -38 -28 c-98 -72 -173 -183 -208
-311 -28 -99 -25 -308 5 -419 33 -119 94 -232 167 -310 60 -65 86 -114 99
-192 21 -131 204 -173 290 -66 l27 34 67 -11 c58 -8 72 -15 95 -42 55 -66 144
-67 224 -3 44 34 56 38 129 45 74 6 82 5 95 -13 7 -11 31 -31 53 -44 38 -22
49 -23 205 -23 240 1 430 45 560 131 30 20 57 31 62 26 21 -21 20 -81 -1 -125
-46 -95 -140 -117 -551 -126 -329 -7 -332 -7 -365 -78 -23 -49 -17 -138 13
-180 45 -63 66 -67 361 -60 271 6 442 23 541 52 182 55 304 188 341 372 26
130 -25 299 -125 409 l-43 49 -6 125 c-11 251 -99 445 -278 615 -132 125 -265
197 -425 230 -66 14 -84 22 -82 34 3 13 15 15 71 13 56 -3 68 -1 74 13 11 29
-11 50 -62 57 -26 4 -49 9 -51 11 -3 3 3 58 12 123 22 148 26 566 7 630 -16
52 -45 78 -87 78 -49 0 -306 -128 -306 -153 0 -29 -33 -51 -76 -51 -53 0 -208
26 -310 51 l-83 21 -6 40 c-6 34 -25 59 -124 159 -105 108 -119 119 -152 119
-22 0 -44 -8 -57 -21z"/>
</g>
</svg>
